<mxfile host="app.diagrams.net" modified="2020-11-02T06:32:53.611Z" agent="5.0 (Windows NT 10.0; Win64; x64) AppleWebKit/537.36 (KHTML, like Gecko) Chrome/80.0.3987.122 Safari/537.36" etag="7Jvi2j0vObTUnpGvjKST" version="13.8.8" type="github">
  <diagram id="gPpmVyW7QiaMyBHPabsO" name="Page-1">
    <mxGraphModel dx="1422" dy="762" grid="1" gridSize="10" guides="1" tooltips="1" connect="1" arrows="1" fold="1" page="1" pageScale="1" pageWidth="827" pageHeight="1169" math="0" shadow="0">
      <root>
        <mxCell id="0" />
        <mxCell id="1" parent="0" />
        <mxCell id="AOPAtwlAZfxoYVlhLo9F-16" style="edgeStyle=orthogonalEdgeStyle;rounded=0;orthogonalLoop=1;jettySize=auto;html=1;exitX=0.07;exitY=0.4;exitDx=0;exitDy=0;exitPerimeter=0;entryX=0.5;entryY=0;entryDx=0;entryDy=0;" edge="1" parent="1" source="AOPAtwlAZfxoYVlhLo9F-1" target="AOPAtwlAZfxoYVlhLo9F-3">
          <mxGeometry relative="1" as="geometry">
            <mxPoint x="250" y="162" as="targetPoint" />
          </mxGeometry>
        </mxCell>
        <mxCell id="AOPAtwlAZfxoYVlhLo9F-17" style="edgeStyle=orthogonalEdgeStyle;rounded=0;orthogonalLoop=1;jettySize=auto;html=1;exitX=0.13;exitY=0.77;exitDx=0;exitDy=0;exitPerimeter=0;entryX=0.5;entryY=0;entryDx=0;entryDy=0;" edge="1" parent="1" source="AOPAtwlAZfxoYVlhLo9F-1" target="AOPAtwlAZfxoYVlhLo9F-4">
          <mxGeometry relative="1" as="geometry">
            <Array as="points">
              <mxPoint x="345" y="192" />
            </Array>
          </mxGeometry>
        </mxCell>
        <mxCell id="AOPAtwlAZfxoYVlhLo9F-18" style="edgeStyle=orthogonalEdgeStyle;rounded=0;orthogonalLoop=1;jettySize=auto;html=1;exitX=0.8;exitY=0.8;exitDx=0;exitDy=0;exitPerimeter=0;entryX=0.5;entryY=0;entryDx=0;entryDy=0;" edge="1" parent="1" source="AOPAtwlAZfxoYVlhLo9F-1" target="AOPAtwlAZfxoYVlhLo9F-5">
          <mxGeometry relative="1" as="geometry" />
        </mxCell>
        <mxCell id="AOPAtwlAZfxoYVlhLo9F-1" value="" style="ellipse;shape=cloud;whiteSpace=wrap;html=1;" vertex="1" parent="1">
          <mxGeometry x="354" y="130" width="120" height="80" as="geometry" />
        </mxCell>
        <mxCell id="AOPAtwlAZfxoYVlhLo9F-11" style="edgeStyle=orthogonalEdgeStyle;rounded=0;orthogonalLoop=1;jettySize=auto;html=1;exitX=0.5;exitY=1;exitDx=0;exitDy=0;entryX=0.117;entryY=0;entryDx=0;entryDy=0;entryPerimeter=0;" edge="1" parent="1" source="AOPAtwlAZfxoYVlhLo9F-3" target="AOPAtwlAZfxoYVlhLo9F-8">
          <mxGeometry relative="1" as="geometry" />
        </mxCell>
        <mxCell id="AOPAtwlAZfxoYVlhLo9F-3" value="github" style="rounded=1;whiteSpace=wrap;html=1;" vertex="1" parent="1">
          <mxGeometry x="220" y="240" width="70" height="30" as="geometry" />
        </mxCell>
        <mxCell id="AOPAtwlAZfxoYVlhLo9F-12" style="edgeStyle=orthogonalEdgeStyle;rounded=0;orthogonalLoop=1;jettySize=auto;html=1;exitX=0.5;exitY=1;exitDx=0;exitDy=0;entryX=0.417;entryY=0.015;entryDx=0;entryDy=0;entryPerimeter=0;" edge="1" parent="1" source="AOPAtwlAZfxoYVlhLo9F-4" target="AOPAtwlAZfxoYVlhLo9F-8">
          <mxGeometry relative="1" as="geometry" />
        </mxCell>
        <mxCell id="AOPAtwlAZfxoYVlhLo9F-4" value="gitlab" style="rounded=1;whiteSpace=wrap;html=1;" vertex="1" parent="1">
          <mxGeometry x="310" y="240" width="70" height="30" as="geometry" />
        </mxCell>
        <mxCell id="AOPAtwlAZfxoYVlhLo9F-13" style="edgeStyle=orthogonalEdgeStyle;rounded=0;orthogonalLoop=1;jettySize=auto;html=1;exitX=0.5;exitY=1;exitDx=0;exitDy=0;entryX=0.817;entryY=0;entryDx=0;entryDy=0;entryPerimeter=0;" edge="1" parent="1" source="AOPAtwlAZfxoYVlhLo9F-5" target="AOPAtwlAZfxoYVlhLo9F-8">
          <mxGeometry relative="1" as="geometry" />
        </mxCell>
        <mxCell id="AOPAtwlAZfxoYVlhLo9F-5" value="kaggle" style="rounded=1;whiteSpace=wrap;html=1;" vertex="1" parent="1">
          <mxGeometry x="430" y="240" width="70" height="30" as="geometry" />
        </mxCell>
        <mxCell id="AOPAtwlAZfxoYVlhLo9F-14" style="edgeStyle=orthogonalEdgeStyle;rounded=0;orthogonalLoop=1;jettySize=auto;html=1;exitX=0;exitY=0.5;exitDx=0;exitDy=0;entryX=1;entryY=0.25;entryDx=0;entryDy=0;" edge="1" parent="1" source="AOPAtwlAZfxoYVlhLo9F-6" target="AOPAtwlAZfxoYVlhLo9F-8">
          <mxGeometry relative="1" as="geometry">
            <mxPoint x="550" y="370" as="targetPoint" />
          </mxGeometry>
        </mxCell>
        <mxCell id="AOPAtwlAZfxoYVlhLo9F-6" value="Heroku" style="rounded=1;whiteSpace=wrap;html=1;" vertex="1" parent="1">
          <mxGeometry x="610" y="240" width="70" height="30" as="geometry" />
        </mxCell>
        <mxCell id="AOPAtwlAZfxoYVlhLo9F-15" style="edgeStyle=orthogonalEdgeStyle;rounded=0;orthogonalLoop=1;jettySize=auto;html=1;exitX=0;exitY=0.5;exitDx=0;exitDy=0;entryX=1.007;entryY=0.708;entryDx=0;entryDy=0;entryPerimeter=0;" edge="1" parent="1" source="AOPAtwlAZfxoYVlhLo9F-7" target="AOPAtwlAZfxoYVlhLo9F-8">
          <mxGeometry relative="1" as="geometry">
            <mxPoint x="590" y="440" as="targetPoint" />
            <Array as="points">
              <mxPoint x="590" y="325" />
              <mxPoint x="590" y="422" />
            </Array>
          </mxGeometry>
        </mxCell>
        <mxCell id="AOPAtwlAZfxoYVlhLo9F-7" value="cadlab" style="rounded=1;whiteSpace=wrap;html=1;" vertex="1" parent="1">
          <mxGeometry x="610" y="310" width="70" height="30" as="geometry" />
        </mxCell>
        <mxCell id="AOPAtwlAZfxoYVlhLo9F-8" value="網路環境&lt;br&gt;&lt;br&gt;&lt;br&gt;&lt;br&gt;&lt;br&gt;&lt;br&gt;" style="rounded=1;whiteSpace=wrap;html=1;" vertex="1" parent="1">
          <mxGeometry x="220" y="330" width="300" height="130" as="geometry" />
        </mxCell>
        <mxCell id="AOPAtwlAZfxoYVlhLo9F-9" value="&lt;font style=&quot;font-size: 30px ; background-color: rgb(255 , 255 , 255)&quot;&gt;laptop&lt;/font&gt;" style="rounded=1;whiteSpace=wrap;html=1;" vertex="1" parent="1">
          <mxGeometry x="240" y="390" width="120" height="60" as="geometry" />
        </mxCell>
        <mxCell id="AOPAtwlAZfxoYVlhLo9F-10" value="&lt;font style=&quot;font-size: 30px ; background-color: rgb(255 , 255 , 255)&quot;&gt;PC&lt;/font&gt;" style="rounded=1;whiteSpace=wrap;html=1;" vertex="1" parent="1">
          <mxGeometry x="380" y="390" width="120" height="60" as="geometry" />
        </mxCell>
        <mxCell id="AOPAtwlAZfxoYVlhLo9F-19" value="網路環境&lt;br&gt;&lt;br&gt;&lt;br&gt;&lt;br&gt;&lt;br&gt;&lt;br&gt;" style="rounded=1;whiteSpace=wrap;html=1;" vertex="1" parent="1">
          <mxGeometry x="300" y="490" width="300" height="130" as="geometry" />
        </mxCell>
        <mxCell id="AOPAtwlAZfxoYVlhLo9F-20" value="&lt;font style=&quot;font-size: 30px ; background-color: rgb(255 , 255 , 255)&quot;&gt;laptop&lt;/font&gt;" style="rounded=1;whiteSpace=wrap;html=1;" vertex="1" parent="1">
          <mxGeometry x="320" y="550" width="120" height="60" as="geometry" />
        </mxCell>
        <mxCell id="AOPAtwlAZfxoYVlhLo9F-21" value="&lt;font style=&quot;font-size: 30px ; background-color: rgb(255 , 255 , 255)&quot;&gt;PC&lt;/font&gt;" style="rounded=1;whiteSpace=wrap;html=1;" vertex="1" parent="1">
          <mxGeometry x="460" y="550" width="120" height="60" as="geometry" />
        </mxCell>
      </root>
    </mxGraphModel>
  </diagram>
</mxfile>
